<svg width="20" height="20" viewBox="0 0 20 20" fill="none" xmlns="http://www.w3.org/2000/svg">
<g clip-path="url(#clip0_34_95)">
<path d="M10 1.66663C8.24339 1.66654 6.55772 2.35976 5.30938 3.59562C4.06104 4.83148 3.35091 6.51009 3.33334 8.26663C3.33334 12.8333 9.20834 17.9166 9.45834 18.1333C9.60929 18.2624 9.80138 18.3333 10 18.3333C10.1986 18.3333 10.3907 18.2624 10.5417 18.1333C10.8333 17.9166 16.6667 12.8333 16.6667 8.26663C16.6491 6.51009 15.939 4.83148 14.6906 3.59562C13.4423 2.35976 11.7566 1.66654 10 1.66663ZM10 16.375C8.60834 15.05 5.00001 11.375 5.00001 8.26663C5.00001 6.94054 5.52679 5.66877 6.46448 4.73109C7.40216 3.79341 8.67393 3.26663 10 3.26663C11.3261 3.26663 12.5979 3.79341 13.5355 4.73109C14.4732 5.66877 15 6.94054 15 8.26663C15 11.35 11.3917 15.05 10 16.375Z" fill="#3C2E23"/>
<path d="M10 5C9.42315 5 8.85924 5.17106 8.3796 5.49155C7.89995 5.81203 7.52612 6.26756 7.30536 6.80051C7.08461 7.33346 7.02685 7.9199 7.13939 8.48568C7.25193 9.05146 7.52971 9.57116 7.93762 9.97906C8.34552 10.387 8.86522 10.6648 9.431 10.7773C9.99678 10.8898 10.5832 10.8321 11.1162 10.6113C11.6491 10.3906 12.1046 10.0167 12.4251 9.53708C12.7456 9.05744 12.9167 8.49353 12.9167 7.91667C12.9167 7.14312 12.6094 6.40125 12.0624 5.85427C11.5154 5.30729 10.7736 5 10 5ZM10 9.16667C9.75278 9.16667 9.51111 9.09336 9.30555 8.956C9.09999 8.81865 8.93977 8.62343 8.84516 8.39502C8.75055 8.16661 8.7258 7.91528 8.77403 7.6728C8.82226 7.43033 8.94131 7.2076 9.11613 7.03278C9.29094 6.85797 9.51367 6.73892 9.75615 6.69068C9.99862 6.64245 10.25 6.66721 10.4784 6.76182C10.7068 6.85643 10.902 7.01664 11.0393 7.2222C11.1767 7.42777 11.25 7.66944 11.25 7.91667C11.25 8.24819 11.1183 8.56613 10.8839 8.80055C10.6495 9.03497 10.3315 9.16667 10 9.16667Z" fill="#3C2E23"/>
</g>
<defs>
<clipPath id="clip0_34_95">
<rect width="20" height="20" fill="white"/>
</clipPath>
</defs>
</svg>
